<svg width="76" height="76" viewBox="0 0 76 76" fill="none" xmlns="http://www.w3.org/2000/svg">
<path d="M73.625 27.3125H46.4312L38 2.375L29.5688 27.3125H2.375L24.3438 42.75L15.9125 67.6875L38 52.25L59.9688 67.6875L51.5375 42.75L73.625 27.3125Z" fill="#FFCE31"/>
<path d="M54.8531 24.104L59.6031 10.5665L47.1344 19.1165L48.9156 24.104H54.8531ZM33.1219 59.3727L37.9906 73.6227L42.8594 59.3727L37.9906 56.0477L33.1219 59.3727ZM60.1969 40.729L55.6844 43.8165L57.5844 49.5165H72.9031L60.1969 40.729ZM28.8469 19.1165L16.3781 10.5665L21.1281 24.104H27.0656L28.8469 19.1165ZM15.7844 40.729L3.07812 49.5165H18.3969L20.2969 43.8165L15.7844 40.729Z" fill="#FFDF85"/>
</svg>
