<svg width="73" height="75" viewBox="0 0 73 75" fill="none" xmlns="http://www.w3.org/2000/svg">
<path opacity="0.7" d="M36.4876 0C34.2625 14.0748 32.3928 22.4416 27.2626 27.6435C22.1324 32.8453 13.8809 34.7412 0 36.9974C13.8809 39.2536 22.1324 41.1495 27.2626 46.367C32.3928 51.5688 34.2625 59.9357 36.4876 74.0214C38.7128 59.9357 40.5825 51.5688 45.7127 46.3513C50.8583 41.1495 59.1099 39.2536 73.0016 36.9974C59.1099 34.7412 50.8583 32.8453 45.7282 27.6435C40.5825 22.4416 38.7128 14.0748 36.4876 0ZM62.3085 10.8471C55.2314 16.0333 49.7921 19.7623 44.9401 21.8462C45.7282 23.319 46.6398 24.5725 47.6906 25.6379C48.7414 26.7034 49.9776 27.6278 51.4455 28.4425C53.5161 23.5227 57.1938 18.0075 62.3085 10.8471ZM10.7069 10.8565C15.8278 18.0232 19.4901 23.5227 21.5452 28.4269C22.9977 27.6278 24.2339 26.7034 25.2847 25.6379C26.3354 24.5725 27.2471 23.319 28.0352 21.8462C23.1986 19.7623 17.7748 16.049 10.7069 10.8565ZM51.4455 45.5522C49.9776 46.367 48.7414 47.2914 47.6906 48.3569C46.6398 49.4223 45.7282 50.6758 44.9246 52.1642C49.7921 54.2481 55.2314 57.9772 62.3085 63.179C57.1784 56.003 53.5007 50.4877 51.4455 45.5522ZM21.5452 45.5679C19.4901 50.4877 15.8124 56.003 10.6977 63.179C17.7594 57.9928 23.1986 54.2638 28.0507 52.1642C27.2471 50.6758 26.3354 49.4223 25.2847 48.3569C24.2339 47.2914 22.9977 46.367 21.5452 45.5679Z" fill="#FFBE6D"/>
</svg>
