<svg width="19" height="19" viewBox="0 0 19 19" fill="none" xmlns="http://www.w3.org/2000/svg">
<g clip-path="url(#clip0_484_169)">
<path d="M6.61973 0.625354C4.72133 1.28392 3.08416 2.53391 1.94868 4.19172C0.813207 5.84952 0.239278 7.82775 0.311197 9.83585C0.383116 11.8439 1.09709 13.7761 2.34826 15.3484C3.59942 16.9207 5.32182 18.0504 7.26246 18.5714C8.83578 18.9774 10.4842 18.9952 12.0659 18.6234C13.4988 18.3015 14.8235 17.6131 15.9104 16.6254C17.0416 15.5661 17.8627 14.2185 18.2854 12.7275C18.7449 11.106 18.8266 9.40088 18.5244 7.74293H9.68941V11.4079H14.8061C14.7038 11.9924 14.4847 12.5503 14.1618 13.0481C13.8389 13.546 13.4188 13.9736 12.9268 14.3054C12.302 14.7186 11.5977 14.9967 10.8591 15.1218C10.1183 15.2595 9.35848 15.2595 8.6177 15.1218C7.86688 14.9665 7.15662 14.6566 6.53215 14.2118C5.52893 13.5017 4.77565 12.4928 4.37981 11.3292C3.97727 10.1438 3.97727 8.8586 4.37981 7.67317C4.66158 6.84224 5.12739 6.08568 5.74246 5.45996C6.44634 4.73076 7.33747 4.20952 8.31808 3.95344C9.2987 3.69735 10.3309 3.71631 11.3014 4.00824C12.0596 4.24098 12.7529 4.64762 13.3261 5.19574C13.9031 4.62179 14.479 4.04634 15.0539 3.46942C15.3508 3.15918 15.6744 2.86379 15.9668 2.54614C15.0919 1.73192 14.0649 1.09836 12.9446 0.68176C10.9047 -0.058958 8.67258 -0.0788641 6.61973 0.625354Z" fill="white"/>
<path d="M6.62149 0.626075C8.67418 -0.0786214 10.9063 -0.0592393 12.9464 0.680997C14.0668 1.10043 15.0934 1.73704 15.9671 2.55428C15.6702 2.87193 15.357 3.16881 15.0542 3.47756C14.4783 4.05251 13.9028 4.62548 13.3279 5.19647C12.7547 4.64834 12.0614 4.2417 11.3032 4.00897C10.333 3.71601 9.30082 3.69595 8.31994 3.95099C7.33907 4.20603 6.44739 4.72631 5.74274 5.45475C5.12767 6.08046 4.66186 6.83702 4.38009 7.66795L1.30298 5.28553C2.4044 3.10136 4.31143 1.43064 6.62149 0.626075Z" fill="#E33629"/>
<path d="M0.480933 7.64412C0.646324 6.82444 0.920907 6.03065 1.29734 5.28397L4.37445 7.67233C3.97191 8.85776 3.97191 10.1429 4.37445 11.3283C3.34924 12.12 2.32354 12.9156 1.29734 13.7152C0.354985 11.8394 0.0675833 9.70221 0.480933 7.64412Z" fill="#F8BD00"/>
<path d="M9.68206 7.74142H18.5171C18.8193 9.39937 18.7375 11.1045 18.2781 12.726C17.8554 14.217 17.0343 15.5646 15.9031 16.6239C14.91 15.8491 13.9125 15.0802 12.9195 14.3053C13.4118 13.9732 13.832 13.5452 14.1549 13.0468C14.4779 12.5484 14.6968 11.9899 14.7987 11.4049H9.68206C9.68057 10.1847 9.68206 8.96307 9.68206 7.74142Z" fill="#587DBD"/>
<path d="M1.30298 13.7135C2.32918 12.9218 3.35488 12.1262 4.38009 11.3266C4.77672 12.4906 5.53108 13.4996 6.5354 14.2093C7.16182 14.652 7.87361 14.9594 8.6254 15.1118C9.36619 15.2495 10.126 15.2495 10.8668 15.1118C11.6054 14.9867 12.3097 14.7086 12.9345 14.2953C13.9276 15.0702 14.9251 15.8391 15.9181 16.6139C14.8314 17.6021 13.5066 18.2911 12.0736 18.6134C10.4919 18.9852 8.84349 18.9674 7.27017 18.5614C6.02582 18.2292 4.86351 17.6435 3.8561 16.8411C2.78982 15.9945 1.91893 14.9277 1.30298 13.7135Z" fill="#319F43"/>
</g>
<defs>
<clipPath id="clip0_484_169">
<rect width="19" height="19" fill="white"/>
</clipPath>
</defs>
</svg>
