<svg width="59" height="55" viewBox="0 0 59 55" fill="none" xmlns="http://www.w3.org/2000/svg">
<path fill-rule="evenodd" clip-rule="evenodd" d="M41.5844 12.308V32.4538C41.5844 34.6428 40.7577 36.3762 39.3984 37.5273C38.0724 38.6482 36.3616 39.1113 34.7248 39.0419C32.833 38.9635 30.8567 38.1413 29.5292 36.6085C29.1867 39.3693 30.1733 41.2052 30.6214 41.6895L31.6472 42.7953L29.4356 44.847L28.4098 43.7412C27.1818 42.4166 25.8633 39.2954 26.7066 35.2176C25.4159 35.4879 24.0836 35.491 22.7918 35.2267C21.4385 34.94 20.108 34.323 19.1002 33.2866C18.0683 32.226 17.4468 30.7974 17.4468 29.0776C17.4468 26.5975 18.3323 24.8052 19.9148 23.4958C21.3782 22.2844 23.365 21.5572 25.3745 20.907C25.8452 20.7562 26.3259 20.6038 26.8167 20.4499C30.647 19.2475 34.9994 17.8808 39.1012 14.411L41.5844 12.308ZM30.9654 32.3603C31.6005 31.1957 32.474 29.9496 33.6537 28.6386L34.6644 27.5177L32.4212 25.4992L31.4104 26.6201C29.9169 28.2795 28.8277 29.8937 28.0553 31.425C26.9208 32.2577 25.0954 32.6304 23.4163 32.2743C22.5066 32.0812 21.7629 31.6965 21.262 31.1821C20.7853 30.6933 20.464 30.0235 20.464 29.0761C20.464 27.4377 20.992 26.519 21.8383 25.8175C22.8023 25.021 24.2581 24.4386 26.3038 23.7764C26.7493 23.6336 27.215 23.4862 27.7007 23.3343C30.8371 22.3553 34.7308 21.1393 38.5672 18.5807V32.4538C38.5672 33.8342 38.0739 34.6956 37.4508 35.2221C36.7946 35.7773 35.8623 36.07 34.8515 36.0277C32.8481 35.9447 31.0649 34.6338 30.9654 32.3603Z" fill="#CCC193"/>
<path fill-rule="evenodd" clip-rule="evenodd" d="M29.5003 53.2804L28.8426 54.6382L28.8365 54.6351L28.8184 54.6261L28.7536 54.5944L28.5122 54.4737C28.304 54.3681 28.0023 54.2112 27.6206 54.006C23.0996 51.5591 18.849 48.6424 14.9393 45.3044C8.05406 39.3802 0.836914 30.5956 0.836914 19.6748C0.836914 14.7673 2.46168 10.0137 5.24354 6.45947C8.03445 2.89766 12.0488 0.47937 16.7723 0.47937C22.3782 0.47937 26.634 3.65799 29.5003 8.14005C32.3652 3.6595 36.6209 0.47937 42.2299 0.47937C46.9518 0.47937 50.9662 2.89766 53.7556 6.46097C56.5405 10.0137 58.1637 14.7658 58.1637 19.6763C58.1637 30.1807 50.9345 38.9668 44.0719 44.9786C39.9007 48.6031 35.3583 51.7767 30.5201 54.4466L30.2803 54.5748L30.2154 54.6095L30.1988 54.6185L30.1913 54.6216L29.5003 53.2804ZM7.61958 8.31957C5.27371 11.3157 3.85412 15.4055 3.85412 19.6748C3.85412 29.2424 10.2144 37.2606 16.9065 43.0174C20.7753 46.318 24.9914 49.1881 29.4807 51.5772L29.9242 51.3298C34.252 48.8649 38.325 45.9774 42.0836 42.7096C48.7968 36.8261 55.1465 28.8109 55.1465 19.6733C55.1465 15.404 53.727 11.3157 51.3811 8.31957C49.0428 5.33405 45.8445 3.49657 42.2299 3.49657C37.2304 3.49657 33.3593 6.76571 30.8551 11.8844L29.5003 14.6557L28.1456 11.8874C25.6413 6.76571 21.7703 3.49657 16.7708 3.49657C13.1561 3.49657 9.95792 5.33405 7.61958 8.31957Z" fill="#CCC193"/>
<path d="M29.4917 53.2832L30.1827 54.6243L29.5129 54.9683L28.834 54.6409L29.4917 53.2832Z" fill="#CCC193"/>
</svg>
