<svg width="63" height="57" viewBox="0 0 63 57" fill="none" xmlns="http://www.w3.org/2000/svg">
<path d="M30.5402 53.5042C30.9487 53.5042 31.3676 53.4125 31.7969 53.2291C32.2263 53.0457 32.5733 52.8216 32.838 52.5569L57.2105 28.1813C57.9962 27.3956 58.6027 26.5932 59.03 25.7741C59.4551 24.9508 59.6677 24.0484 59.6677 23.0667C59.6677 22.0726 59.4551 21.1076 59.03 20.1718C58.6027 19.2339 57.9962 18.3794 57.2105 17.6083L45.4869 5.88471C44.7137 5.09897 43.9186 4.52269 43.1016 4.15587C42.2867 3.78906 41.3821 3.60565 40.388 3.60565C39.4063 3.60565 38.4945 3.78906 37.6525 4.15587C36.8105 4.52269 36.0174 5.09793 35.2734 5.88158L32.5472 8.6077L38.3309 14.4069C38.952 15.0176 39.4157 15.7116 39.7221 16.489C40.0264 17.2664 40.1785 18.0553 40.1785 18.8556C40.1785 20.4834 39.646 21.8298 38.581 22.8948C37.516 23.9598 36.1706 24.4913 34.5449 24.4892C33.7425 24.4892 32.9599 24.3673 32.1971 24.1234C31.4343 23.8796 30.7476 23.4523 30.1369 22.8416L24.1563 16.883L10.657 30.3791C10.3423 30.6959 10.1058 31.0554 9.94738 31.4577C9.78898 31.8599 9.70978 32.2663 9.70978 32.6769C9.70978 33.4147 9.94633 34.0223 10.4194 34.4995C10.8905 34.9789 11.4949 35.2186 12.2327 35.2186C12.6412 35.2186 13.0601 35.1269 13.4895 34.9435C13.9188 34.758 14.2658 34.5329 14.5305 34.2682L24.4377 24.361L26.6511 26.5744L16.7595 36.4847C16.4427 36.7994 16.2051 37.1579 16.0467 37.5602C15.8904 37.9645 15.8123 38.3709 15.8123 38.7794C15.8123 39.4776 16.0582 40.0727 16.5501 40.5645C17.0419 41.0564 17.637 41.3034 18.3352 41.3055C18.7437 41.3055 19.1626 41.2127 19.5919 41.0272C20.0213 40.8417 20.3683 40.6177 20.633 40.3551L31.2623 29.7445L33.4758 31.9548L22.862 42.5841C22.5848 42.8488 22.3577 43.1958 22.1805 43.6251C22.0013 44.0545 21.9116 44.4734 21.9116 44.8819C21.9116 45.578 22.1586 46.172 22.6526 46.6639C23.1444 47.1599 23.7395 47.408 24.4377 47.408C24.8462 47.408 25.2526 47.3288 25.6569 47.1704C26.0613 47.012 26.4197 46.7744 26.7324 46.4576L37.3617 35.8438L39.5751 38.0573L28.9458 48.6866C28.6311 49.0034 28.3945 49.3838 28.2361 49.8277C28.0777 50.2716 27.9985 50.677 27.9985 51.0438C27.9985 51.7816 28.258 52.3766 28.777 52.8289C29.2959 53.2812 29.8837 53.5073 30.5402 53.5073M30.5214 56.6336C28.9145 56.6336 27.539 56.0459 26.3947 54.8704C25.2505 53.6928 24.7482 52.2401 24.8879 50.5123C23.1163 50.5332 21.6417 50.0048 20.4642 48.9273C19.2866 47.8477 18.727 46.3429 18.7854 44.413C16.8554 44.4338 15.334 43.8815 14.221 42.756C13.108 41.6306 12.6016 40.1487 12.7016 38.3105C10.9634 38.3313 9.50865 37.8415 8.33734 36.8411C7.16811 35.8449 6.5835 34.4568 6.5835 32.6769C6.5835 31.8745 6.73877 31.0721 7.04932 30.2697C7.35986 29.4652 7.81838 28.7586 8.42488 28.1501L24.1563 12.4374L32.2284 20.5094C32.4931 20.7866 32.8203 21.0149 33.21 21.1941C33.5998 21.3733 34.0385 21.4619 34.5262 21.4598C35.1952 21.4598 35.7861 21.2264 36.2988 20.7595C36.8115 20.2927 37.0689 19.6841 37.071 18.9338C37.071 18.4461 36.9814 18.0084 36.8021 17.6208C36.6229 17.231 36.3957 16.9038 36.1206 16.6391L25.3662 5.88471C24.5909 5.09897 23.7853 4.52269 22.9496 4.15587C22.1138 3.78906 21.1989 3.60565 20.2047 3.60565C19.223 3.60565 18.331 3.78906 17.5286 4.15587C16.7283 4.52269 15.9352 5.09897 15.1495 5.88471L5.63311 15.4199C4.962 16.0868 4.42011 16.884 4.00744 17.8115C3.59478 18.7368 3.37594 19.6924 3.35093 20.6783C3.33008 21.3848 3.39053 22.0632 3.53225 22.7135C3.67397 23.3637 3.90324 23.9765 4.22003 24.5517L1.85031 26.9214C1.3251 26.0836 0.914513 25.1186 0.618558 24.0265C0.322604 22.9344 0.186089 21.8194 0.209015 20.6814C0.234026 19.26 0.518517 17.9 1.06249 16.6016C1.60646 15.3031 2.38595 14.1454 3.40095 13.1283L12.8579 3.6713C13.948 2.59169 15.1016 1.78928 16.3187 1.26407C17.5359 0.740936 18.8521 0.47937 20.2672 0.47937C21.6824 0.47937 22.9871 0.741978 24.1813 1.26719C25.3777 1.79032 26.5156 2.59169 27.5952 3.6713L30.3151 6.39429L33.0412 3.6713C34.1312 2.59169 35.2744 1.78928 36.4707 1.26407C37.6671 0.740936 38.9728 0.47937 40.388 0.47937C41.8031 0.47937 43.1193 0.741978 44.3364 1.26719C45.5515 1.79032 46.6978 2.59169 47.7754 3.6713L59.4239 15.3167C60.5014 16.3942 61.333 17.6041 61.9187 18.9463C62.5043 20.2885 62.7961 21.6672 62.794 23.0824C62.794 24.4996 62.5022 25.8054 61.9187 26.9996C61.3351 28.1938 60.5035 29.3318 59.4239 30.4135L35.0483 54.7672C34.4001 55.4175 33.6936 55.8906 32.9287 56.1865C32.1658 56.4825 31.3634 56.6305 30.5214 56.6305" fill="#CCC193"/>
</svg>
