<svg width="59" height="58" viewBox="0 0 59 58" fill="none" xmlns="http://www.w3.org/2000/svg">
<g clip-path="url(#clip0_335_105)">
<path d="M43.1462 22.0127C43.3541 21.7591 43.509 21.4664 43.6019 21.1519C43.6947 20.8373 43.7236 20.5074 43.6867 20.1815C43.6499 19.8557 43.5481 19.5405 43.3874 19.2546C43.2267 18.9688 43.0103 18.718 42.751 18.5172C42.2236 18.1046 41.5559 17.9143 40.8902 17.9868C40.2246 18.0592 39.6135 18.3888 39.1873 18.9052L27.2962 33.4906L20.9376 28.6049C20.4181 28.1821 19.7542 27.979 19.0871 28.0387C18.4201 28.0984 17.8027 28.4163 17.3667 28.9246C17.1536 29.1739 16.9927 29.4634 16.8935 29.7759C16.7942 30.0884 16.7586 30.4177 16.7887 30.7442C16.8188 31.0707 16.9141 31.3879 17.0689 31.677C17.2237 31.9661 17.4349 32.2212 17.69 32.4272L26.0245 38.9296C26.5508 39.3577 27.2251 39.5602 27.9002 39.4929C28.5753 39.4256 29.1963 39.094 29.6277 38.5704L43.1354 21.9732L43.1462 22.0127Z" fill="#CCC193"/>
<path fill-rule="evenodd" clip-rule="evenodd" d="M24.1431 2.56011C26.0615 1.15186 27.0207 0.44774 28.0589 0.174713C28.9866 -0.060679 29.9584 -0.060679 30.8861 0.174713C31.9351 0.44774 32.8979 1.15186 34.8019 2.56011L37.234 4.34556C37.8986 4.83413 38.2327 5.07842 38.592 5.26882C38.9129 5.43647 39.247 5.57538 39.5943 5.68554C39.9858 5.8041 40.3918 5.86517 41.2073 5.9909L44.189 6.44715C46.5421 6.80639 47.7168 6.98961 48.6437 7.53925C49.4699 8.02424 50.1597 8.71399 50.6447 9.54025C51.1943 10.4743 51.3739 11.6526 51.7368 13.9949L52.193 16.9766C52.3188 17.7921 52.3798 18.2017 52.4984 18.5933C52.6062 18.9405 52.7451 19.2734 52.9151 19.592C53.1091 19.9512 53.3498 20.2853 53.8384 20.9499L55.6238 23.382C57.0321 25.3004 57.7362 26.2596 58.0092 27.2978C58.2446 28.2255 58.2446 29.1973 58.0092 30.125C57.7398 31.174 57.0321 32.1368 55.6238 34.0408L53.8384 36.4729C53.4965 36.9014 53.1879 37.3554 52.9151 37.8309C52.7447 38.1522 52.6051 38.489 52.4984 38.8368C52.3798 39.2247 52.3188 39.6307 52.193 40.4462L51.7368 43.4279C51.3775 45.781 51.1943 46.9557 50.6447 47.8826C50.1597 48.7088 49.4699 49.395 48.6437 49.8836C47.7096 50.4332 46.5313 50.6128 44.189 50.9757L41.2073 51.4319C40.6625 51.4937 40.1233 51.597 39.5943 51.7409C39.247 51.8462 38.9129 51.9852 38.592 52.1576C38.2327 52.348 37.8986 52.5887 37.234 53.0809L34.8019 54.8663C32.8836 56.2746 31.9244 56.9787 30.8861 57.2517C29.9584 57.4871 28.9866 57.4871 28.0589 57.2517C27.0099 56.9787 26.0471 56.2746 24.1431 54.8663L21.711 53.0809C21.2825 52.739 20.8285 52.4304 20.3531 52.1576C20.0329 51.9874 19.6973 51.8479 19.3508 51.7409C18.8217 51.597 18.2825 51.4937 17.7378 51.4319L14.756 50.9757C12.4029 50.6164 11.2246 50.4368 10.3014 49.8836C9.47803 49.3937 8.79018 48.7059 8.30036 47.8826C7.75071 46.9485 7.57109 45.7702 7.20825 43.4279L6.75201 40.4462C6.62628 39.6307 6.5652 39.2247 6.44665 38.8332C6.34183 38.4859 6.20222 38.1501 6.02993 37.8309C5.75716 37.3554 5.44851 36.9014 5.10667 36.4729L3.32121 34.0408C1.91297 32.1225 1.20885 31.1669 0.935821 30.125C0.700429 29.1973 0.700429 28.2255 0.935821 27.2978C1.20526 26.2488 1.91297 25.286 3.32121 23.382L5.10667 20.9499C5.59524 20.2853 5.83953 19.9512 6.02993 19.592C6.19758 19.271 6.33648 18.9369 6.44665 18.5897C6.5652 18.1981 6.62628 17.7921 6.75201 16.9766L7.20825 13.9949C7.5675 11.6418 7.75071 10.4635 8.30036 9.54025C8.78534 8.71399 9.4751 8.03142 10.3014 7.53925C11.2354 6.98961 12.4137 6.80998 14.756 6.44715L17.7378 5.9909C18.5532 5.86876 18.9628 5.8041 19.3508 5.68554C19.698 5.57777 20.0321 5.43886 20.3531 5.26882C20.7123 5.07842 21.0464 4.83413 21.711 4.34556L24.1431 2.56011ZM32.6932 5.45563L35.2474 7.33089C35.7899 7.72965 36.3251 8.12123 36.9215 8.44096C37.4484 8.72117 37.9944 8.9475 38.5596 9.11994C39.2058 9.29861 39.8636 9.43186 40.5283 9.5187L43.6609 10.0001C46.3229 10.4096 46.6535 10.521 46.8474 10.636C47.1516 10.818 47.3935 11.0599 47.5731 11.3616C47.6881 11.5556 47.803 11.8861 48.209 14.5481L48.6904 17.6808C48.7772 18.3455 48.9105 19.0033 49.0891 19.6494C49.264 20.2194 49.4903 20.7655 49.7681 21.2876C50.0842 21.8839 50.4794 22.4192 50.8782 22.9617L52.7534 25.5159C54.3485 27.6858 54.4994 27.9983 54.5569 28.221C54.6397 28.5585 54.6397 28.911 54.5569 29.2485C54.4994 29.4676 54.3485 29.7802 52.7534 31.9536L50.8782 34.5078C50.4794 35.0503 50.0842 35.5856 49.7681 36.1819C49.4903 36.7052 49.263 37.2537 49.0891 37.8201C48.9105 38.4662 48.7772 39.124 48.6904 39.7888L48.209 42.9214C47.7994 45.5834 47.6881 45.9139 47.5731 46.1079C47.3932 46.4047 47.1442 46.6536 46.8474 46.8336C46.6535 46.9485 46.3229 47.0635 43.6609 47.4694L40.5283 47.9508C39.8636 48.0377 39.2058 48.1709 38.5596 48.3496C37.9933 48.5234 37.4448 48.7508 36.9215 49.0286C36.3251 49.3447 35.7899 49.7399 35.2474 50.1386L32.6932 52.0139C30.5233 53.6089 30.2108 53.7598 29.988 53.8173C29.6506 53.9001 29.2981 53.9001 28.9606 53.8173C28.7415 53.7598 28.4289 53.6089 26.2555 52.0139L23.7012 50.1386C23.1698 49.73 22.6104 49.3591 22.0271 49.0286C21.5039 48.7508 20.9553 48.5234 20.389 48.3496C19.7429 48.1709 19.085 48.0377 18.4203 47.9508L15.2877 47.4694C12.6257 47.0599 12.2952 46.9485 12.1012 46.8336C11.8044 46.6536 11.5554 46.4047 11.3755 46.1079C11.2605 45.9139 11.1456 45.5834 10.7396 42.9214L10.2583 39.7888C10.1714 39.124 10.0382 38.4662 9.85949 37.8201C9.68563 37.2537 9.45828 36.7052 9.18051 36.1819C8.86438 35.5856 8.46921 35.0503 8.07044 34.5078L6.19518 31.9536C4.60013 29.7838 4.44925 29.4712 4.39177 29.2485C4.30895 28.911 4.30895 28.5585 4.39177 28.221C4.44925 28.0019 4.60013 27.6894 6.19518 25.5159L8.07044 22.9617C8.46921 22.4192 8.86438 21.8839 9.18051 21.2876C9.45833 20.7607 9.68466 20.2146 9.85949 19.6494C10.0382 19.0033 10.1714 18.3455 10.2583 17.6808L10.7396 14.5481C11.1492 11.8861 11.2605 11.5556 11.3755 11.3616C11.5554 11.0648 11.8044 10.8159 12.1012 10.636C12.2952 10.521 12.6257 10.406 15.2877 10.0001L18.4203 9.5187C19.085 9.43186 19.7429 9.29861 20.389 9.11994C20.959 8.9451 21.505 8.71878 22.0271 8.44096C22.6235 8.12482 23.1588 7.72965 23.7012 7.33089L26.2555 5.45563C28.4253 3.86058 28.7379 3.70969 28.9606 3.65221C29.2981 3.5694 29.6506 3.5694 29.988 3.65221C30.2072 3.70969 30.5197 3.86058 32.6932 5.45563Z" fill="#CCC193"/>
</g>
<defs>
<clipPath id="clip0_335_105">
<rect width="57.4793" height="57.4793" fill="white" transform="translate(0.760254)"/>
</clipPath>
</defs>
</svg>
