<svg width="62" height="79" viewBox="0 0 62 79" fill="none" xmlns="http://www.w3.org/2000/svg">
<g opacity="0.7">
<path d="M3 46.8394C6.5525 46.8394 11.5085 45.7428 14.62 48.1103L20.787 52.7943C23.0795 54.5372 25.561 53.9635 28.1195 53.5495C31.4865 53.0012 34.5 55.9823 34.5 59.8602C34.5 60.9205 27.2445 63.6184 26.198 64.1303C25.1904 64.6246 24.0718 64.8243 22.9629 64.7078C21.854 64.5914 20.7967 64.1632 19.905 63.4695L12.947 58.1791" stroke="url(#paint0_linear_335_181)" stroke-width="5.25" stroke-linecap="round" stroke-linejoin="round"/>
<path d="M34.5 57.4818L48.8185 50.6192C50.0813 50.1665 51.4433 50.1022 52.7405 50.434C54.0376 50.7658 55.2147 51.4795 56.13 52.4892L58.475 55.0345C59.315 55.9423 59.119 57.4745 58.0795 58.0991L30.5905 74.6602C29.7784 75.1539 28.8771 75.469 27.9426 75.5858C27.0081 75.7026 26.0604 75.6187 25.1585 75.3392L3 68.4729M31.007 39.3267C31.007 39.3267 38.357 31.1968 38.357 21.1716C38.357 11.1463 31.007 3.01648 31.007 3.01648C31.007 3.01648 23.657 11.1463 23.657 21.1716C23.657 31.1968 31.007 39.3267 31.007 39.3267ZM31.007 39.3267C31.007 39.3267 41.7415 39.0798 48.507 31.9194C55.2725 24.7554 55.507 13.3903 55.507 13.3903C55.507 13.3903 51.062 13.492 46.092 15.4745M31.007 39.3267C31.007 39.3267 20.2725 39.0798 13.507 31.9194C6.7415 24.7554 6.507 13.3903 6.507 13.3903C6.507 13.3903 10.952 13.492 15.922 15.4745" stroke="url(#paint1_linear_335_181)" stroke-width="5.25" stroke-linecap="round" stroke-linejoin="round"/>
</g>
<defs>
<linearGradient id="paint0_linear_335_181" x1="18.75" y1="46.5858" x2="18.75" y2="64.7402" gradientUnits="userSpaceOnUse">
<stop stop-color="#CCC193"/>
<stop offset="1" stop-color="#66614A"/>
</linearGradient>
<linearGradient id="paint1_linear_335_181" x1="30.9997" y1="3.01648" x2="30.9997" y2="75.6369" gradientUnits="userSpaceOnUse">
<stop stop-color="#CCC193"/>
<stop offset="1" stop-color="#66614A"/>
</linearGradient>
</defs>
</svg>
