<svg width="38" height="45" viewBox="0 0 38 45" fill="none" xmlns="http://www.w3.org/2000/svg">
<path d="M37.6896 28.1237L33.1896 5.30139C33.1896 4.26198 32.1899 0.113281 18.69 0.113281C4.68924 0.113281 4.19044 5.30139 4.19044 5.30139L0.189288 28.6434C-0.0352326 29.3627 -0.06056 30.1329 0.116191 30.8664C0.292941 31.5998 0.664666 32.2671 1.18904 32.7921C2.53395 34.3076 4.26948 35.3913 6.18994 35.9148C6.78107 36.8725 7.65984 37.6015 8.69039 37.9891C8.69039 37.9891 7.68849 44.723 18.69 44.723C29.6916 44.723 29.1885 39.5349 29.6894 37.4605L32.6887 35.8992C34.1691 35.0777 35.5187 34.0245 36.6898 32.7765C37.2212 32.1482 37.5913 31.3911 37.766 30.5751C37.9407 29.7592 37.9145 28.9107 37.6896 28.1081M35.1891 31.7393C33.1896 33.8137 29.1885 36.4077 18.69 36.4077C7.68849 36.4077 3.68949 33.8137 2.68974 32.259C2.13362 31.3097 1.79183 30.2422 1.68999 29.1363L6.18994 5.30139C6.18994 5.30139 6.68444 1.67462 18.1891 1.67462H18.69C28.6897 1.67462 31.1944 4.26198 31.1944 5.30139L35.6944 28.1237C35.8769 28.7295 35.9266 29.3699 35.8399 29.9981C35.7533 30.6264 35.5324 31.2266 35.1934 31.7549" fill="#CCC193"/>
</svg>
