<svg width="60" height="75" viewBox="0 0 60 75" fill="none" xmlns="http://www.w3.org/2000/svg">
<g opacity="0.7">
<path d="M56.5996 44.9255C53.1994 44.9255 48.4558 43.8759 45.4776 46.1419L39.5749 50.6252C37.3807 52.2934 35.0055 51.7443 32.5567 51.3481C29.334 50.8233 26.4496 53.6766 26.4496 57.3883C26.4496 58.4031 33.3942 60.9854 34.3958 61.4754C35.3602 61.9485 36.4308 62.1396 37.4923 62.0282C38.5537 61.9167 39.5656 61.5069 40.4191 60.8429L47.0789 55.7792" stroke="url(#paint0_linear_335_184)" stroke-width="5.025" stroke-linecap="round" stroke-linejoin="round"/>
<path d="M26.4496 55.1117L12.7448 48.5432C11.5361 48.1099 10.2325 48.0484 8.99089 48.3659C7.74929 48.6835 6.62265 49.3666 5.7466 50.333L3.5021 52.7693C2.6981 53.6381 2.8857 55.1047 3.88065 55.7025L30.1916 71.5538C30.9688 72.0264 31.8315 72.328 32.726 72.4398C33.6205 72.5516 34.5275 72.4712 35.3908 72.2037L56.5996 65.6317M29.7929 37.7347C29.7929 37.7347 22.7579 29.9532 22.7579 20.3576C22.7579 10.762 29.7929 2.98059 29.7929 2.98059C29.7929 2.98059 36.8279 10.762 36.8279 20.3576C36.8279 29.9532 29.7929 37.7347 29.7929 37.7347ZM29.7929 37.7347C29.7929 37.7347 19.5184 37.4983 13.0429 30.6448C6.56735 23.7878 6.3429 12.9098 6.3429 12.9098C6.3429 12.9098 10.5974 13.0071 15.3544 14.9047M29.7929 37.7347C29.7929 37.7347 40.0674 37.4983 46.5429 30.6448C53.0185 23.7878 53.2429 12.9098 53.2429 12.9098C53.2429 12.9098 48.9884 13.0071 44.2314 14.9047" stroke="url(#paint1_linear_335_184)" stroke-width="5.025" stroke-linecap="round" stroke-linejoin="round"/>
</g>
<defs>
<linearGradient id="paint0_linear_335_184" x1="41.5246" y1="44.6828" x2="41.5246" y2="62.0591" gradientUnits="userSpaceOnUse">
<stop stop-color="#CCC193"/>
<stop offset="1" stop-color="#66614A"/>
</linearGradient>
<linearGradient id="paint1_linear_335_184" x1="29.7999" y1="2.98059" x2="29.7999" y2="72.4887" gradientUnits="userSpaceOnUse">
<stop stop-color="#CCC193"/>
<stop offset="1" stop-color="#66614A"/>
</linearGradient>
</defs>
</svg>
