<svg width="129" height="127" viewBox="0 0 129 127" fill="none" xmlns="http://www.w3.org/2000/svg">
<path d="M64.4816 90.3922L78.5771 101.015L64.5121 121.094L50.4289 100.983C55.0511 97.3651 59.7831 93.9024 64.4816 90.3891M60.1371 9.9175L47.4908 1.83679L46.3558 17.2006L56.7596 20.7076L60.1371 9.9175ZM26.8479 31.8712L12.4107 28.2407L15.9102 43.2184H26.8479V31.8712ZM49.7058 43.2184H32.2848V18.3939L55.0755 26.0758C53.3853 31.8237 51.5181 37.5116 49.7058 43.2184ZM113.007 43.2184L116.507 28.2407L102.073 31.8712V43.2184H113.007ZM82.5922 17.1563L81.4603 1.79248L68.811 9.87319L72.1914 20.6633L82.5922 17.1563ZM79.2544 43.2152L73.8725 26.0283L96.6297 18.359V43.2152C90.839 43.326 85.0452 43.2405 79.2544 43.2152ZM98.8172 105.674L113.627 104.496L105.838 91.3766L95.4368 94.8836L98.8172 105.674ZM113.309 67.6093L127.045 61.7473L115.729 51.7675L106.881 58.4334L113.309 67.6093ZM88.389 72.3697L102.481 61.7473L116.546 81.8304L93.7557 89.5123C91.8641 83.834 90.1586 78.0923 88.389 72.3697ZM37.1755 110.972L42.8289 125.222L52.4517 113.479L46.0233 104.303L37.1755 110.972ZM76.5513 113.511L86.171 125.247L91.8244 111.001L82.9766 104.332L76.5513 113.511ZM13.2711 51.7897L1.95508 61.7727L15.6905 67.6346L22.1189 58.4556L13.2711 51.7897ZM23.1105 91.4209L15.3214 104.544L30.1308 105.715L33.5113 94.9279L23.1105 91.4209ZM40.5773 72.3729L35.1923 89.5598L12.4382 81.8906L26.5215 61.779C31.2688 65.2227 35.9063 68.8215 40.5773 72.3729Z" stroke="#CCC193" stroke-width="3.05097" stroke-linecap="round" stroke-linejoin="round"/>
</svg>
