<svg width="79" height="79" viewBox="0 0 79 79" fill="none" xmlns="http://www.w3.org/2000/svg">
<path d="M26.8655 0C26.8655 20.6263 15.7194 39.0798 0 39.0798C15.7194 39.0798 26.8655 57.5345 26.8655 78.1595C26.8655 57.5345 38.0116 39.0798 53.731 39.0798C38.0116 39.0798 26.8655 20.6263 26.8655 0Z" fill="black"/>
<path d="M58.6131 39.0801C58.6131 49.3945 53.042 58.62 45.1797 58.62C53.042 58.62 58.6131 67.848 58.6131 78.1598C58.6131 67.848 64.1842 58.62 72.0465 58.62C64.1842 58.62 58.6131 49.3945 58.6131 39.0801Z" fill="#FFD199"/>
<path d="M64.7225 0C64.7225 10.3132 59.1514 19.5399 51.2891 19.5399C59.1501 19.5399 64.7225 28.7679 64.7225 39.0798C64.7225 28.7679 70.2936 19.5399 78.1559 19.5399C70.2936 19.5399 64.7225 10.3132 64.7225 0Z" fill="black"/>
</svg>
