<svg width="48" height="48" viewBox="0 0 48 48" fill="none" xmlns="http://www.w3.org/2000/svg">
<path opacity="0.7" d="M23.7015 0C22.2561 9.01646 21.0415 14.3764 17.7091 17.7087C14.3767 21.0411 9.01665 22.2556 0 23.701C9.01665 25.1463 14.3767 26.3608 17.7091 29.7032C21.0415 33.0356 22.2561 38.3955 23.7015 47.419C25.1469 38.3955 26.3614 33.0356 29.6938 29.6932C33.0363 26.3608 38.3963 25.1463 47.42 23.701C38.3963 22.2556 33.0363 21.0411 29.7039 17.7087C26.3614 14.3764 25.1469 9.01646 23.7015 0ZM40.4741 6.94879C35.8769 10.2711 32.3437 12.66 29.192 13.9949C29.7039 14.9384 30.2961 15.7414 30.9786 16.424C31.6612 17.1065 32.4642 17.6987 33.4177 18.2206C34.7628 15.0689 37.1517 11.5358 40.4741 6.94879ZM6.95496 6.95481C10.2814 11.5458 12.6603 15.0689 13.9952 18.2106C14.9388 17.6987 15.7418 17.1065 16.4243 16.424C17.1068 15.7414 17.6991 14.9384 18.211 13.9949C15.0692 12.66 11.5461 10.2812 6.95496 6.95481ZM33.4177 29.1813C32.4642 29.7032 31.6612 30.2954 30.9786 30.978C30.2961 31.6605 29.7039 32.4635 29.1819 33.417C32.3437 34.752 35.8769 37.1408 40.4741 40.4732C37.1416 35.8761 34.7527 32.343 33.4177 29.1813ZM13.9952 29.1913C12.6603 32.343 10.2713 35.8761 6.94894 40.4732C11.5361 37.1509 15.0692 34.762 18.221 33.417C17.6991 32.4635 17.1068 31.6605 16.4243 30.978C15.7418 30.2954 14.9388 29.7032 13.9952 29.1913Z" fill="url(#paint0_linear_335_98)"/>
<defs>
<linearGradient id="paint0_linear_335_98" x1="23.71" y1="0" x2="23.71" y2="47.419" gradientUnits="userSpaceOnUse">
<stop stop-color="#F3B94C"/>
<stop offset="1" stop-color="#8D6B2C"/>
</linearGradient>
</defs>
</svg>
